<svg width="76" height="74" viewBox="0 0 76 74" fill="none" xmlns="http://www.w3.org/2000/svg">
<g clip-path="url(#clip0)">
<path fill-rule="evenodd" clip-rule="evenodd" d="M39.8777 27.8061H9.96941C8.33112 27.8061 6.7596 28.4574 5.59906 29.6175C4.43852 30.7775 3.78356 32.3517 3.77765 33.9952V63.9988C3.77765 65.6462 4.42999 67.2261 5.59117 68.391C6.75235 69.5559 8.32725 70.2103 9.96941 70.2103H39.8777C41.5198 70.2103 43.0947 69.5559 44.2559 68.391C45.4171 67.2261 46.0694 65.6462 46.0694 63.9988V33.9952C46.0694 32.3478 45.4171 30.7678 44.2559 29.603C43.0947 28.4381 41.5198 27.7837 39.8777 27.7837V27.8061ZM9.96941 23.994C4.47059 23.994 0 28.4788 0 33.9952V63.9988C0 69.5152 4.47059 74 9.96941 74H39.8777C45.3765 74 49.8471 69.5152 49.8471 63.9988V33.9952C49.8471 28.4788 45.3765 23.994 39.8777 23.994H9.96941Z" fill="#9B59B6"/>
<path fill-rule="evenodd" clip-rule="evenodd" d="M34.7142 3.81212H64.6224C66.2607 3.81211 67.8322 4.46346 68.9927 5.6235C70.1533 6.78354 70.8082 8.3577 70.8142 10.0012V40.0048C70.8142 41.6522 70.1618 43.2322 69.0006 44.3971C67.8395 45.5619 66.2646 46.2164 64.6224 46.2164H52.373V50.0061H64.6224C70.1436 50.0061 74.5918 45.5212 74.5918 40.0048V10.0012C74.5918 4.48485 70.1212 0 64.6224 0H34.7142C29.2153 0 24.7448 4.48485 24.7448 10.0012V21.7964H28.5448V10.0012C28.5447 8.35769 29.194 6.78116 30.3504 5.61692C31.5067 4.45267 33.0759 3.79563 34.7142 3.7897V3.81212Z" fill="#9B59B6"/>
<path fill-rule="evenodd" clip-rule="evenodd" d="M24.8564 10.3151C24.8564 4.70908 29.3941 0.179382 34.9599 0.179382H64.5105C70.0988 0.179382 74.6141 4.70908 74.6141 10.3151V39.96C74.6141 45.566 70.0988 50.0957 64.5105 50.0957H52.5741V31.7976H63.7058C64.3764 31.7976 64.7341 31.0576 64.3317 30.5194L54.2729 17.6703C54.1997 17.577 54.1063 17.5016 53.9998 17.4497C53.8934 17.3979 53.7765 17.3709 53.6582 17.3709C53.5398 17.3709 53.423 17.3979 53.3165 17.4497C53.21 17.5016 53.1167 17.577 53.0435 17.6703L48.327 23.4557C46.6187 22.2299 44.5708 21.5712 42.4705 21.5721H24.8564V10.3151ZM12.6964 39.063C12.6964 38.0091 13.5458 37.157 14.5964 37.157H35.0494C35.5533 37.157 36.0365 37.3578 36.3929 37.7152C36.7492 38.0727 36.9494 38.5575 36.9494 39.063C36.9494 39.5685 36.7492 40.0533 36.3929 40.4108C36.0365 40.7683 35.5533 40.9691 35.0494 40.9691H14.5964C14.0925 40.9691 13.6092 40.7683 13.2529 40.4108C12.8966 40.0533 12.6964 39.5685 12.6964 39.063ZM12.6964 49.1315C12.6964 48.0776 13.5458 47.2254 14.5964 47.2254H35.0494C35.5533 47.2254 36.0365 47.4263 36.3929 47.7837C36.7492 48.1412 36.9494 48.626 36.9494 49.1315C36.9494 49.637 36.7492 50.1218 36.3929 50.4793C36.0365 50.8368 35.5533 51.0376 35.0494 51.0376H14.5964C14.0925 51.0376 13.6092 50.8368 13.2529 50.4793C12.8966 50.1218 12.6964 49.637 12.6964 49.1315ZM12.6964 59.2C12.6964 58.1685 13.5458 57.3164 14.5964 57.3164H35.0494C35.5533 57.3164 36.0365 57.5172 36.3929 57.8746C36.7492 58.2321 36.9494 58.7169 36.9494 59.2224C36.9494 59.7279 36.7492 60.2127 36.3929 60.5702C36.0365 60.9277 35.5533 61.1285 35.0494 61.1285H14.5964C14.3469 61.1285 14.0998 61.0792 13.8693 60.9834C13.6388 60.8876 13.4293 60.7472 13.2529 60.5702C13.0765 60.3932 12.9365 60.1831 12.841 59.9518C12.7456 59.7206 12.6964 59.4727 12.6964 59.2224V59.2Z" fill="#9B59B6"/>
</g>
<defs>
<clipPath id="clip0">
<rect width="76" height="74" fill="white"/>
</clipPath>
</defs>
</svg>
